<svg width="64" height="64" viewBox="0 0 64 64" fill="none" xmlns="http://www.w3.org/2000/svg">
<rect width="64" height="64" rx="8" fill="url(#paint0_linear_71_304)"/>
<path d="M30.9 15.2C31.3 15.2 31.5 15.4 31.5 15.8V48.2C31.5 48.6 31.3 48.8 30.9 48.8H25.932C25.644 48.8 25.364 48.664 25.092 48.392L23.892 47.192L22.692 48.392C22.436 48.664 22.116 48.8 21.732 48.8H18.06C17.692 48.8 17.372 48.664 17.1 48.392L12.3 43.592C12.028 43.336 11.892 43.016 11.892 42.632V28.568C11.892 28.184 12.028 27.864 12.3 27.608L17.1 22.808C17.372 22.536 17.692 22.4 18.06 22.4H21.732C22.116 22.4 22.436 22.536 22.692 22.808L23.892 24.008V15.8C23.892 15.4 24.092 15.2 24.492 15.2H30.9ZM23.892 27.992H20.868C20.34 27.992 19.98 28.096 19.788 28.304C19.596 28.512 19.5 28.88 19.5 29.408V41.792C19.5 42.32 19.596 42.688 19.788 42.896C19.98 43.104 20.34 43.208 20.868 43.208H22.548C23.06 43.208 23.412 43.104 23.604 42.896C23.796 42.688 23.892 42.32 23.892 41.792V27.992Z" fill="#DCD507"/>
<path d="M33.1 48.8C32.7 48.8 32.5 48.6 32.5 48.2V15.8C32.5 15.4 32.7 15.2 33.1 15.2H38.068C38.356 15.2 38.636 15.336 38.908 15.608L40.108 16.808L41.308 15.608C41.564 15.336 41.884 15.2 42.268 15.2H45.94C46.308 15.2 46.628 15.336 46.9 15.608L51.7 20.408C51.972 20.664 52.108 20.984 52.108 21.368V35.432C52.108 35.816 51.972 36.136 51.7 36.392L46.9 41.192C46.628 41.464 46.308 41.6 45.94 41.6H42.268C41.884 41.6 41.564 41.464 41.308 41.192L40.108 39.992V48.2C40.108 48.6 39.908 48.8 39.508 48.8H33.1ZM40.108 36.008H43.132C43.66 36.008 44.02 35.904 44.212 35.696C44.404 35.488 44.5 35.12 44.5 34.592V22.208C44.5 21.68 44.404 21.312 44.212 21.104C44.02 20.896 43.66 20.792 43.132 20.792H41.452C40.94 20.792 40.588 20.896 40.396 21.104C40.204 21.312 40.108 21.68 40.108 22.208V36.008Z" fill="#DCD507"/>
<defs>
<linearGradient id="paint0_linear_71_304" x1="0" y1="0" x2="64" y2="64" gradientUnits="userSpaceOnUse">
<stop stop-color="#732EDB"/>
<stop offset="1" stop-color="#360089"/>
</linearGradient>
</defs>
</svg>
